<svg width="48" height="48" viewBox="0 0 48 48" fill="none" xmlns="http://www.w3.org/2000/svg">
<g filter="url(#filter0_d_203_324)">
<rect x="10.1543" y="8" width="26.6667" height="24" fill="black"/>
<path d="M32.1766 11.9721C32.1846 11.9721 32.1952 11.9721 32.2058 11.9721C32.4834 11.9721 32.741 12.0584 32.9522 12.2072L32.9482 12.2045C33.1023 12.3386 33.2058 12.5272 33.2311 12.7397V12.7437C33.2576 12.9057 33.2722 13.0916 33.2722 13.2815C33.2722 13.3679 33.2696 13.4529 33.2629 13.5378V13.5259C32.9641 16.672 31.668 24.3015 31.0093 27.8234C30.7304 29.3147 30.1819 29.8141 29.6507 29.8619C28.4967 29.9695 27.6202 29.0996 26.502 28.3665C24.7517 27.2178 23.7623 26.5033 22.0637 25.3838C20.0996 24.0916 21.3732 23.3785 22.4914 22.2178C22.7849 21.9124 27.8725 17.2842 27.9721 16.8645C27.9774 16.8393 27.9801 16.8114 27.9801 16.7822C27.9801 16.6786 27.9416 16.5843 27.8792 16.5126C27.8101 16.4675 27.7238 16.4422 27.6335 16.4422C27.5737 16.4422 27.5166 16.4542 27.4635 16.4741L27.4661 16.4728C27.2908 16.5126 24.4949 18.3603 19.0784 22.0159C18.4874 22.4821 17.741 22.7769 16.9283 22.8114H16.9203C15.7689 22.672 14.7238 22.4157 13.7317 22.0505L13.83 22.0823C12.5843 21.676 11.595 21.4622 11.6799 20.7742C11.7251 20.4166 12.2182 20.0505 13.1594 19.676C18.9566 17.1501 22.8225 15.4852 24.757 14.6813C26.8911 13.5485 29.3652 12.6162 31.9668 12.012L32.1753 11.9708L32.1766 11.9721ZM23.9535 0C12.9283 0.0265604 4 8.97078 4 20C4 31.0452 12.9535 40 24 40C35.0465 40 44 31.0465 44 20C44 8.97078 35.0717 0.0265604 24.0491 0H24.0465C24.0155 0 23.9845 0 23.9535 0Z" fill="white"/>
</g>
<defs>
<filter id="filter0_d_203_324" x="0" y="0" width="48" height="48" filterUnits="userSpaceOnUse" color-interpolation-filters="sRGB">
<feFlood flood-opacity="0" result="BackgroundImageFix"/>
<feColorMatrix in="SourceAlpha" type="matrix" values="0 0 0 0 0 0 0 0 0 0 0 0 0 0 0 0 0 0 127 0" result="hardAlpha"/>
<feOffset dy="4"/>
<feGaussianBlur stdDeviation="2"/>
<feComposite in2="hardAlpha" operator="out"/>
<feColorMatrix type="matrix" values="0 0 0 0 0 0 0 0 0 0 0 0 0 0 0 0 0 0 0.25 0"/>
<feBlend mode="normal" in2="BackgroundImageFix" result="effect1_dropShadow_203_324"/>
<feBlend mode="normal" in="SourceGraphic" in2="effect1_dropShadow_203_324" result="shape"/>
</filter>
</defs>
</svg>
