<svg width="48" height="48" viewBox="0 0 48 48" fill="none" xmlns="http://www.w3.org/2000/svg">
<g filter="url(#filter0_d_203_321)">
<rect x="12.2051" y="8" width="26.6667" height="24" fill="black"/>
<path d="M24 0C12.9532 0 4 8.95315 4 20C4 31.0469 12.9532 40 24 40C35.0469 40 44 31.0469 44 20C44 8.95315 35.0469 0 24 0ZM31.9844 16.8906C31.9922 17.0625 31.9922 17.2422 31.9922 17.4219C31.9922 22.8515 27.8594 29.1172 20.2969 29.1172C17.9765 29.1172 15.8125 28.4375 14 27.2735C14.3203 27.3125 14.6484 27.3281 14.9844 27.3281C16.9062 27.3281 18.6797 26.6719 20.086 25.5703C18.2891 25.5391 16.7656 24.3516 16.25 22.7188C16.5 22.7656 16.7578 22.7891 17.0234 22.7891C17.3984 22.7891 17.7656 22.7422 18.1094 22.6406C16.2265 22.2656 14.8125 20.6015 14.8125 18.6094V18.5625C15.3672 18.8672 16 19.0547 16.6719 19.0781C15.5703 18.3438 14.8438 17.0781 14.8438 15.6562C14.8438 14.9062 15.0469 14.1953 15.3984 13.5859C17.4297 16.0781 20.4531 17.711 23.8672 17.8828C23.7969 17.586 23.7578 17.2735 23.7578 16.9453C23.7578 14.6797 25.6015 12.8359 27.8672 12.8359C29.0469 12.8359 30.1172 13.336 30.8672 14.1328C31.8047 13.9453 32.6797 13.6094 33.4766 13.1328C33.1719 14.0938 32.5156 14.8984 31.6719 15.4062C32.5 15.3047 33.2969 15.086 34.0312 14.7578C33.4844 15.586 32.789 16.3047 31.9844 16.8906Z" fill="white"/>
</g>
<defs>
<filter id="filter0_d_203_321" x="0" y="0" width="48" height="48" filterUnits="userSpaceOnUse" color-interpolation-filters="sRGB">
<feFlood flood-opacity="0" result="BackgroundImageFix"/>
<feColorMatrix in="SourceAlpha" type="matrix" values="0 0 0 0 0 0 0 0 0 0 0 0 0 0 0 0 0 0 127 0" result="hardAlpha"/>
<feOffset dy="4"/>
<feGaussianBlur stdDeviation="2"/>
<feComposite in2="hardAlpha" operator="out"/>
<feColorMatrix type="matrix" values="0 0 0 0 0 0 0 0 0 0 0 0 0 0 0 0 0 0 0.25 0"/>
<feBlend mode="normal" in2="BackgroundImageFix" result="effect1_dropShadow_203_321"/>
<feBlend mode="normal" in="SourceGraphic" in2="effect1_dropShadow_203_321" result="shape"/>
</filter>
</defs>
</svg>
